<svg fill="#fff" xmlns="http://www.w3.org/2000/svg" viewBox="0 0 50 50" width="20px" height="20px"><path d="M27 20.138C27 19.908 26.99 18 25.08 18H23v4c0 0 1.838-.02 2.146-.02C26.864 21.98 27 20.494 27 20.138zM26.092 26.022C25.556 26.022 23 26 23 26v6c0 0 2.5-.044 3-.044 2.594 0 3-2.22 3-3.022C29 27.714 28.344 26.022 26.092 26.022z"/><path d="M25,2C12.318,2,2,12.318,2,25s10.318,23,23,23s23-10.318,23-23S37.682,2,25,2z M25.8,36H17V14h7.78c2.402,0,8.2,0.072,8.2,5.04c0,2.96-2.02,4.26-2.94,4.64v0.12c2.378,0,4.96,2.49,4.96,5.24C35,32,33.75,36,25.8,36z"/></svg>
